<?xml version="1.0" ?><!DOCTYPE svg  PUBLIC '-//W3C//DTD SVG 1.1//EN'  'http://www.w3.org/Graphics/SVG/1.1/DTD/svg11.dtd'><svg id="Lager_1" style="enable-background:new 0 0 128 128;" version="1.1" viewBox="0 0 128 128" xml:space="preserve" xmlns="http://www.w3.org/2000/svg" xmlns:xlink="http://www.w3.org/1999/xlink"><path d="M64,14c-27.6,0-50,22.4-50,50s22.4,50,50,50s50-22.4,50-50S91.6,14,64,14z M66.1,35.3c1.8-2.6,4.8-4.4,9-5.3  c0,0.1,0.1,0.2,0.1,0.4c0,0.2,0.1,0.3,0.1,0.4c0,0.1,0,0.2,0,0.4c0,0.1,0,0.3,0,0.4c0,1.5-0.3,3.1-1,4.9s-1.8,3.5-3.3,5  c-1.3,1.2-2.6,2.1-3.9,2.5c-0.9,0.3-2.1,0.5-3.8,0.6C63.4,41,64.3,37.9,66.1,35.3z M84.4,82.8c-3.1,4.7-6.2,7.1-9.3,7.1  c-1.1,0-2.8-0.4-5-1.2c-2-0.8-3.8-1.2-5.4-1.2c-1.4,0-3.2,0.4-5.1,1.2c-2,0.8-3.6,1.2-4.8,1.2c-3.7,0-7.3-3.1-10.9-9.3  c-3.5-6.2-5.3-12.3-5.3-18.1c0-5.5,1.4-10,4.1-13.5s6.1-5.2,10.2-5.2c1.7,0,3.9,0.4,6.4,1.1c2.5,0.7,4.2,1.1,5,1.1  c1.1,0,2.8-0.4,5.2-1.2c2.4-0.8,4.5-1.2,6.2-1.2c2.9,0,5.4,0.7,7.7,2.3c1.3,0.9,2.5,2.1,3.8,3.6c-1.9,1.7-3.3,3.1-4.1,4.3  c-1.5,2.3-2.3,4.8-2.3,7.5c0,2.9,0.8,5.6,2.5,8c1.7,2.3,3.6,3.9,5.5,4.5C87.9,76.8,86.4,79.8,84.4,82.8z"/></svg>