<?xml version="1.0" encoding="utf-8"?>
<!-- Generator: Adobe Illustrator 16.0.0, SVG Export Plug-In . SVG Version: 6.00 Build 0)  -->
<!DOCTYPE svg PUBLIC "-//W3C//DTD SVG 1.1//EN" "http://www.w3.org/Graphics/SVG/1.1/DTD/svg11.dtd">
<svg version="1.1" id="Layer_1" xmlns="http://www.w3.org/2000/svg" xmlns:xlink="http://www.w3.org/1999/xlink" x="0px" y="0px"
	 width="136px" height="174px" viewBox="0 0 136 174" style="enable-background:new 0 0 136 174;" xml:space="preserve">
<style type="text/css">
<![CDATA[
	.st0{fill:#231815;}
	.st1{fill:url(#SVGID_1_);}
	.st2{fill:url(#SVGID_2_);}
	.st3{fill:#FFF000;}
	.st4{fill:#0083E5;stroke:#231815;stroke-width:6;stroke-miterlimit:10;}
]]>
</style>
<g>
	<g>
		
			<linearGradient id="SVGID_1_" gradientUnits="userSpaceOnUse" x1="-231.9307" y1="-304.3521" x2="-230.9307" y2="-304.3521" gradientTransform="matrix(0 -133.8169 -133.8169 0 -40694.9062 -30873.8945)">
			<stop  offset="0" style="stop-color:#E3007F"/>
			<stop  offset="0.7783" style="stop-color:#F09DC1"/>
			<stop  offset="1" style="stop-color:#F09DC1"/>
		</linearGradient>
		<path class="st1" d="M51.5,122.416c0,37.699-38,40-38,40V68.599l38-40C51.5,28.599,51.5,84.718,51.5,122.416z"/>
		<path class="st0" d="M48.495,122.57c-0.034,8.844-2.235,15.375-5.453,20.373c-2.434,3.768-5.476,6.674-8.716,8.939
			c-4.854,3.395-10.162,5.309-14.24,6.344c-1.361,0.348-2.566,0.59-3.586,0.77V70.233c-3.633-1.899-6-2.832-6-2.832v98.202
			l3.182-0.193c0.123-0.008,2.65-0.166,6.417-1.016c5.642-1.283,14.12-4.096,21.369-10.512c3.616-3.205,6.903-7.328,9.259-12.539
			c2.358-5.209,3.775-11.482,3.773-18.928c0-0.086-0.004-0.168-0.005-0.254C52.492,122.635,50.464,122.777,48.495,122.57z"/>
	</g>
	<circle class="st4" cx="69" cy="69.667" r="55.5"/>
	<g>
		
			<linearGradient id="SVGID_2_" gradientUnits="userSpaceOnUse" x1="-234.3452" y1="-307.2305" x2="-233.3457" y2="-307.2305" gradientTransform="matrix(72.2049 41.6875 41.6875 -72.2049 29773.2852 -12358.166)">
			<stop  offset="0" style="stop-color:#00993E"/>
			<stop  offset="0.3251" style="stop-color:#00993E"/>
			<stop  offset="1" style="stop-color:#00A0E1"/>
		</linearGradient>
		<path class="st2" d="M51.5,122.416c0-11.582-10.139-43.41-10.139-50.235c0-31.185,25.514-32.182,66.947-41.698
			c0,0,29.232,26.851,8.76,66.933c-8.693,13.75-18.387,20.109-27.721,23.891C69.59,129.314,51.5,122.416,51.5,122.416z"/>
		<path class="st0" d="M107.498,33.945L107.498,33.945c1.814-1.145,3.884-1.904,6.098-2.13c-1.859-2.234-3.177-3.465-3.258-3.542
			l-1.162-1.068l-1.539,0.354c-10.305,2.367-19.656,4.211-27.95,6.147c-6.222,1.453-11.85,2.957-16.854,4.802
			c-3.752,1.385-7.156,2.964-10.179,4.885c-4.53,2.871-8.207,6.573-10.647,11.352c-2.448,4.777-3.647,10.521-3.646,17.436
			c0.001,0.61,0.053,1.234,0.136,1.924c0.157,1.287,0.432,2.797,0.792,4.526c1.257,6.028,3.574,14.736,5.575,23.134
			c1,4.191,1.919,8.301,2.581,11.902c0.664,3.594,1.06,6.719,1.055,8.748v2.066l1.931,0.736c0.005,0.002,0.033,0.012,0.046,0.018
			c0.946-1.92,2.351-3.637,4.04-5.01c-0.036-0.01-0.077-0.02-0.112-0.031c-0.078-1.064-0.201-2.191-0.368-3.396
			c-0.507-3.633-1.371-7.877-2.381-12.33c-1.515-6.674-3.361-13.807-4.82-19.801c-0.729-2.995-1.362-5.706-1.804-7.9
			c-0.221-1.096-0.394-2.062-0.507-2.854c-0.115-0.787-0.165-1.411-0.163-1.732c0-3.694,0.379-6.868,1.083-9.608
			c1.245-4.796,3.416-8.282,6.597-11.208c2.39-2.187,5.392-4.039,9.029-5.669c5.451-2.448,12.31-4.369,20.362-6.236
			c7.62-1.77,16.317-3.508,25.912-5.683C107.393,33.828,107.448,33.89,107.498,33.945z"/>
	</g>
	<g>
		<circle class="st3" cx="69.002" cy="69.667" r="27.75"/>
		<path class="st0" d="M96.752,69.667h-3c-0.002,6.844-2.766,13.013-7.249,17.501c-4.488,4.483-10.657,7.247-17.501,7.249
			c-6.844-0.002-13.013-2.766-17.501-7.249c-4.483-4.488-7.247-10.657-7.249-17.501c0.002-6.844,2.766-13.013,7.249-17.501
			c4.488-4.483,10.657-7.248,17.501-7.249c6.844,0.001,13.013,2.766,17.501,7.249c4.483,4.488,7.247,10.657,7.249,17.501H96.752h3
			c0.002-8.482-3.446-16.188-9.007-21.744c-5.555-5.56-13.261-9.008-21.743-9.006c-8.482-0.001-16.188,3.446-21.744,9.006
			c-5.56,5.555-9.008,13.262-9.006,21.744c-0.002,8.482,3.446,16.188,9.006,21.744c5.556,5.561,13.262,9.008,21.744,9.006
			c8.482,0.002,16.188-3.445,21.743-9.006c5.561-5.555,9.009-13.262,9.007-21.744H96.752z"/>
	</g>
	<path class="st0" d="M124.5,69.667h-3c-0.002,14.507-5.871,27.613-15.377,37.123c-9.51,9.506-22.616,15.375-37.123,15.377
		c-14.507-0.002-27.613-5.871-37.123-15.377c-9.506-9.51-15.375-22.616-15.377-37.123c0.002-14.507,5.871-27.613,15.377-37.123
		C41.387,23.038,54.492,17.168,69,17.167c14.507,0.001,27.613,5.872,37.123,15.377c9.506,9.51,15.375,22.616,15.377,37.123H124.5h3
		c0.002-16.145-6.553-30.789-17.134-41.366C99.789,17.719,85.146,11.165,69,11.167c-16.146-0.001-30.789,6.553-41.366,17.134
		C17.053,38.878,10.498,53.522,10.5,69.667c-0.002,16.145,6.553,30.789,17.134,41.365C38.211,121.613,52.854,128.168,69,128.166
		c16.146,0.002,30.789-6.553,41.366-17.135c10.581-10.576,17.136-25.22,17.134-41.365H124.5z"/>
</g>
</svg>
